<svg width="182" height="182" viewBox="0 0 182 182" fill="none" xmlns="http://www.w3.org/2000/svg">
<path d="M116.721 45.15L143.568 91.65C154.999 111.45 140.71 136.2 117.847 136.2H64.1532C41.2901 136.2 27.0007 111.45 38.4323 91.65L65.2791 45.15C76.7106 25.35 105.289 25.35 116.721 45.15Z" fill="white" stroke="black" stroke-width="0.6"/>
<path d="M108.5 52C106.9 47.6 101.5 47.5 99 48M106.5 48C111.3 48 110.833 46.3333 110 45.5" stroke="black" stroke-width="0.6"/>
<path d="M62 112C62 106.477 66.4772 102 72 102H110C115.523 102 120 106.477 120 112V136H62V112Z" fill="black"/>
<path d="M50 95C50.6667 93 52.8 89 56 89" stroke="black" stroke-width="0.6"/>
<path d="M52 89.5C51.8333 87.3333 52.2 83.1 55 83.5" stroke="black" stroke-width="0.6"/>
<ellipse cx="79.1095" cy="66.5206" rx="4" ry="3.5" transform="rotate(-99.4551 79.1095 66.5206)" fill="black"/>
<circle cx="77.6095" cy="63.5206" r="1.5" fill="white"/>
<ellipse cx="103.11" cy="66.5206" rx="4" ry="3.5" transform="rotate(-99.4551 103.11 66.5206)" fill="black"/>
<circle cx="101.61" cy="63.5206" r="1.5" fill="white"/>
<path d="M76 89.5C87.5 89.5 81.5 92.5 91.5 91C101.5 89.5 100 87 106 87" stroke="black"/>
<path d="M126.5 82.5C128.833 85 132.8 90.4 130 92" stroke="black" stroke-width="0.6"/>
<path d="M120 94.5C125.2 96.1 127.167 93.5 127.5 92" stroke="black" stroke-width="0.6"/>
</svg>
