<svg width="17" height="18" viewBox="0 0 17 18" fill="none" xmlns="http://www.w3.org/2000/svg">
<path d="M8.32396 2.38803C7.69157 1.59284 6.79576 1.02312 5.8502 0.751374C4.51878 0.368732 3.00233 0.556788 1.93691 1.64387C0.775409 2.82899 0.381898 4.15955 0.529769 5.53211C0.674452 6.87508 1.3326 8.22351 2.19657 9.50143C3.43913 11.3393 5.20105 13.1545 6.70191 14.7008C7.27345 15.2896 7.80714 15.8394 8.25988 16.3366L8.57405 16.6817L8.93993 16.392C11.0279 14.7391 13.5017 11.9963 15.0327 9.23971C15.7977 7.86229 16.3468 6.4468 16.4726 5.13926C16.5997 3.81826 16.2944 2.57345 15.3108 1.63254C14.1318 0.504718 12.4947 0.291634 11.0885 0.677179C10.0777 0.954314 9.13319 1.55578 8.53055 2.41054L8.40685 2.09985L8.32396 2.38803Z" fill="url(#paint0_linear_2_8)" stroke="white"/>
<defs>
<linearGradient id="paint0_linear_2_8" x1="6.15625" y1="5.34951" x2="10.2973" y2="12.8017" gradientUnits="userSpaceOnUse">
<stop offset="0.168908" stop-color="#FF7A7A"/>
<stop offset="1" stop-color="#793E3E"/>
</linearGradient>
</defs>
</svg>
