<svg width="74" height="307" viewBox="0 0 74 307" fill="none" xmlns="http://www.w3.org/2000/svg">
<mask id="path-1-inside-1_1_30" fill="white">
<path fill-rule="evenodd" clip-rule="evenodd" d="M37 307C48.0457 307 57 298.046 57 287C57 275.954 48.0457 267 37 267C25.9543 267 17 275.954 17 287C17 298.046 25.9543 307 37 307ZM37 299C43.6274 299 49 293.627 49 287C49 280.373 43.6274 275 37 275C30.3726 275 25 280.373 25 287C25 293.627 30.3726 299 37 299Z"/>
</mask>
<path fill-rule="evenodd" clip-rule="evenodd" d="M37 307C48.0457 307 57 298.046 57 287C57 275.954 48.0457 267 37 267C25.9543 267 17 275.954 17 287C17 298.046 25.9543 307 37 307ZM37 299C43.6274 299 49 293.627 49 287C49 280.373 43.6274 275 37 275C30.3726 275 25 280.373 25 287C25 293.627 30.3726 299 37 299Z" fill="#949494"/>
<path d="M56 287C56 297.493 47.4934 306 37 306V308C48.598 308 58 298.598 58 287H56ZM37 268C47.4934 268 56 276.507 56 287H58C58 275.402 48.598 266 37 266V268ZM18 287C18 276.507 26.5066 268 37 268V266C25.402 266 16 275.402 16 287H18ZM37 306C26.5066 306 18 297.493 18 287H16C16 298.598 25.402 308 37 308V306ZM48 287C48 293.075 43.0751 298 37 298V300C44.1797 300 50 294.18 50 287H48ZM37 276C43.0751 276 48 280.925 48 287H50C50 279.82 44.1797 274 37 274V276ZM26 287C26 280.925 30.9249 276 37 276V274C29.8203 274 24 279.82 24 287H26ZM37 298C30.9249 298 26 293.075 26 287H24C24 294.18 29.8203 300 37 300V298Z" fill="black" mask="url(#path-1-inside-1_1_30)"/>
<path d="M27.5 160C27.5 149.5 18 139.5 15 135L58 135.5C53.6 141.457 46.5 149.5 46.5 160H27.5Z" fill="#515151" stroke="black"/>
<mask id="path-4-outside-2_1_30" maskUnits="userSpaceOnUse" x="0" y="0" width="74" height="160" fill="black">
<rect fill="white" width="74" height="160"/>
<path fill-rule="evenodd" clip-rule="evenodd" d="M2 120L37 4L72 120L37 158L2 120Z"/>
</mask>
<path fill-rule="evenodd" clip-rule="evenodd" d="M2 120L37 4L72 120L37 158L2 120Z" fill="#949494"/>
<path d="M37 4L37.9574 3.71114L37 0.538138L36.0426 3.71114L37 4ZM2 120L1.04263 119.711L0.877743 120.258L1.26445 120.677L2 120ZM72 120L72.7355 120.677L73.1223 120.258L72.9574 119.711L72 120ZM37 158L36.2645 158.677L37 159.476L37.7355 158.677L37 158ZM36.0426 3.71114L1.04263 119.711L2.95737 120.289L37.9574 4.28886L36.0426 3.71114ZM36.0426 4.28886L71.0426 120.289L72.9574 119.711L37.9574 3.71114L36.0426 4.28886ZM71.2645 119.323L36.2645 157.323L37.7355 158.677L72.7355 120.677L71.2645 119.323ZM1.26445 120.677L36.2645 158.677L37.7355 157.323L2.73555 119.323L1.26445 120.677Z" fill="black" mask="url(#path-4-outside-2_1_30)"/>
<path d="M37 158V4L2 120L37 158Z" fill="#D9D9D9"/>
<rect x="27.5" y="159.5" width="19" height="110" fill="#F4F3E0" stroke="black"/>
<path d="M46.5 166.5L27.5 173.5V183.5L46.5 177V188L27.5 194V203L46.5 197.5V207L27.5 212V223L46.5 217V227.5L27.5 235.5V245.5L46.5 242V251.5L27.5 258.5V270L46.5 264" stroke="black"/>
</svg>
